# AST/ASF file generated using VICON BodyLanguage
# -----------------------------------------------
:version 1.10
:name VICON
:units
  mass 1.0
  length 0.45
  angle deg
:documentation
   .ast/.asf automatically generated from VICON data using
   VICON BodyBuilder and BodyLanguage model FoxedUp or BRILLIANT.MOD
:root
   order TX TY TZ RX RY RZ
   axis XYZ
   position 0 0 0  
   orientation 0 0 0 
:bonedata
  begin
     id 1 
     name lhipjoint
     direction 0.646657 -0.683706 0.338203 
     length 2.4948 
     axis 0 0 0  XYZ
  end
  begin
     id 2 
     name lfemur
     direction 0.34202 -0.939693 0  
     length 6.79491  
     axis 0 0 20  XYZ
    dof rx ry rz
    limits (-160.0 20.0)
           (-70.0 70.0)
           (-60.0 70.0)
  end
  begin
     id 3 
     name ltibia
     direction 0.34202 -0.939693 0   
     length 7.56807   
     axis 0 0 20   XYZ
    dof rx
    limits (-10.0 170.0)
  end
  begin
     id 4 
     name lfoot
     direction 0.0679796 -0.186772 0.980048   
     length 2.53018   
     axis -90 7.62852e-016 20   XYZ
    dof rx rz
    limits (-45.0 90.0)
           (-70.0 20.0)
  end
  begin
     id 5 
     name ltoes
     direction 1.53625e-011 -4.21881e-011 1   
     length 1.26912   
     axis -90 7.62852e-016 20   XYZ
    dof rx
    limits (-90.0 20.0)
  end
  begin
     id 6 
     name rhipjoint
     direction -0.618868 -0.704065 0.348274   
     length 2.42265  
     axis 0 0 0  XYZ 
  end
  begin
     id 7 
     name rfemur
     direction -0.34202 -0.939693 0   
     length 6.73814   
     axis 0 0 -20   XYZ
    dof rx ry rz
    limits (-160.0 20.0)
           (-70.0 70.0)
           (-70.0 60.0)
  end
  begin
     id 8 
     name rtibia
     direction -0.34202 -0.939693 0   
     length 7.66799   
     axis 0 0 -20   XYZ
    dof rx
    limits (-10.0 170.0)
 end
 begin
     id 9 
     name rfoot
     direction -0.0727352 -0.199838 0.977125   
     length 2.57224  
     axis -90 -7.62852e-016 -20   XYZ
    dof rx rz
    limits (-45.0 90.0)
           (-20.0 70.0)
  end
  begin
     id 10 
     name rtoes
     direction -1.53501e-011 -4.21858e-011 1   
     length 1.28858   
     axis -90 -7.62852e-016 -20   XYZ
    dof rx
    limits (-90.0 20.0)
  end
  begin
     id 11 
     name lowerback
     direction -0.0172471 0.995767 -0.0902851   
     length 2.20206   
     axis 0 0 0   XYZ
    dof rx ry rz
    limits (-20.0 45.0)
           (-30.0 30.0)
           (-30.0 30.0)
  end
  begin
     id 12 
     name upperback
     direction -0.000110737 0.999714 0.0239043   
     length 2.19523   
     axis 0 0 0   XYZ
    dof rx ry rz
    limits (-20.0 45.0)
           (-30.0 30.0)
           (-30.0 30.0)
  end
  begin
     id 13 
     name thorax
     direction 0.00704869 0.997783 0.0661741   
     length 2.21977   
     axis 0 0 0   XYZ
    dof rx ry rz
    limits (-20.0 45.0)
           (-30.0 30.0)
           (-30.0 30.0)
  end
  begin
     id 14 
     name lowerneck
     direction -0.00407501 0.995527 0.0943846   
     length 1.83142   
     axis 0 0 0   XYZ
    dof rx ry rz
    limits (-20.0 45.0)
           (-30.0 30.0)
           (-30.0 30.0)
  end
  begin
     id 15 
     name upperneck
     direction 0.0640586 0.986486 -0.150807   
     length 1.84616   
     axis 0 0 0   XYZ
    dof rx ry rz
    limits (-20.0 45.0)
           (-30.0 30.0)
           (-30.0 30.0)
  end
  begin
     id 16
     name head
     direction 0.0188017 0.99791 -0.0618239  
     length 1.85932  
     axis 0 0 0   XYZ
    dof rx ry rz
    limits (-20.0 45.0)
           (-30.0 30.0)
           (-30.0 30.0)
  end
  begin
     id 17 
     name lclavicle
     direction 0.976074 0.206905 0.066852  
     length 3.81043  
     axis 0 0 0   XYZ
    dof ry rz
    limits (-20.0 10.0)
           (0.0 20.0)
  end
  begin
     id 18 
     name lhumerus
     direction 1 -4.48971e-011 1.86916e-027   
     length 5.37587   
     axis 180 -30 -90   XYZ
    dof rx ry rz
    limits (-60.0 90.0)
           (-90.0 90.0)
           (-90.0 90.0)
  end
  begin
     id 19
     name lradius
     direction 1 -4.48968e-011 1.69187e-027   
     length 3.35977   
     axis 180 -30 -90   XYZ
    dof rx
    limits (-10.0 170.0)
  end
  begin
     id 20
     name lwrist
     direction 1 -4.48968e-011 5.8978e-027   
     length 1.67988   
     axis -3.27506e-015 90 90   XYZ
    dof ry
    limits (-180.0 0.0)
 end
  begin
     id 21 
     name lhand
     direction 1 -4.49028e-011 1.18071e-026   
     length 0.561859   
     axis -7.52654e-015 90 90   XYZ
    dof rx rz
    limits (-90.0 90.0)
           (-45.0 45.0)
  end
  begin
     id 22 
     name lfingers
     direction 1 -4.48927e-011 2.35758e-026   
     length 0.452985   
     axis -1.50534e-014 90 90   XYZ
    dof rx
    limits (0.0 90.0)
  end
  begin
     id 23
     name lthumb
     direction 0.707107 -6.34898e-011 0.707107   
     length 0.650399   
     axis -90 45 5.69224e-014   XYZ
    dof rx rz
    limits (-45.0 45.0)
           (-45.0 45.0)
  end
  begin
     id 24 
     name rclavicle
     direction -0.988403 0.151789 0.00439714   
     length 3.6942  
     axis 0 0 0   XYZ 
    dof ry rz
    limits (-10.0 20.0)
           (-20.0 0.0)
  end
  begin
     id 25 
     name rhumerus
     direction -1 -4.48978e-011 1.62495e-027  
     length 5.22819   
     axis 180 30 90   XYZ
    dof rx ry rz
    limits (-90.0 60.0)
           (-90.0 90.0)
           (-90.0 90.0)
  end
  begin
     id 26 
     name rradius
     direction -1 -4.48961e-011 3.47796e-027   
     length 3.40764   
     axis 180 30 90   XYZ
    dof rx
    limits (-10.0 170.0)
  end
  begin
     id 27 
     name rwrist
     direction -1 -4.48949e-011 5.89602e-027   
     length 1.70382   
     axis -3.27506e-015 -90 -90   XYZ
    dof ry
    limits (-180.0 0.0)
  end
  begin
     id 28
     name rhand
     direction -1 -4.48977e-011 1.17973e-026   
     length 0.583255   
     axis -7.52654e-015 -90 -90   XYZ
    dof rx rz
    limits (-90.0 90.0)
           (-45.0 45.0)
  end
  begin
     id 29
     name rfingers
     direction -1 -4.49099e-011 2.36408e-026   
     length 0.470235   
     axis -1.50534e-014 -90 -90   XYZ
    dof rx
    limits (0.0 90.0)
  end
  begin
     id 30
     name rthumb
     direction -0.707107 -6.35011e-011 0.707107   
     length 0.675167   
     axis -90 -45 -5.69224e-014   XYZ
    dof rx rz
    limits (-45.0 45.0)
           (-45.0 45.0)
  end
:hierarchy
  begin
    root lhipjoint rhipjoint lowerback
    lhipjoint lfemur
    lfemur ltibia
    ltibia lfoot
    lfoot ltoes
    rhipjoint rfemur
    rfemur rtibia
    rtibia rfoot
    rfoot rtoes
    lowerback upperback
    upperback thorax
    thorax lowerneck lclavicle rclavicle
    lowerneck upperneck
    upperneck head
    lclavicle lhumerus
    lhumerus lradius
    lradius lwrist
    lwrist lhand lthumb
    lhand lfingers
    rclavicle rhumerus
    rhumerus rradius
    rradius rwrist
    rwrist rhand rthumb
    rhand rfingers
  end

#!OML:ASF G:\JayActor3\Patient Classification 1\Patient 1\Session 2\male.ASF
:FULLY-SPECIFIED
:DEGREES
2293
root 15.2951 17.2035 -4.65356 1761.66 83.0683 -760.135
lowerback -0.237116 1.67182 6.77316
upperback -1.13968 2.33048 2.48636
thorax -0.880826 1.14146 -1.23962
lowerneck -2.6827 -1.22778 -1.34277
upperneck 4.38649 -1.77983 5.03658
head 1.9065 -0.779606 1.78636
rclavicle 3.81667e-014 4.13472e-014
rhumerus -19.2029 8.11475 -69.5822
rradius 54.4588
rwrist 2.03626
rhand -26.9573 5.07879
rfingers 7.12502
rthumb -0.378831 -24.9006
lclavicle 3.81667e-014 4.13472e-014
lhumerus -31.5153 -5.44128 70.615
lradius 50.3015
lwrist 12.7621
lhand -17.6569 19.6147
lfingers 7.12502
lthumb 8.6015 49.4195
rfemur 0.37384 -1.82265 23.7321
rtibia 23.3648
rfoot -13.8121 -1.33185
rtoes 16.7247
lfemur -18.7635 8.77396 -14.7666
ltibia 17.8499
lfoot -13.5115 10.8277
ltoes -11.9598
2294
root 15.4165 17.1855 -4.67222 1762 82.7294 -759.807
lowerback -0.347915 1.66191 6.71216
upperback -1.13158 2.30796 2.54436
thorax -0.81647 1.13346 -1.14252
lowerneck -2.71946 -1.19303 -1.25556
upperneck 4.74411 -1.75024 5.07923
head 2.0281 -0.755364 1.78816
rclavicle -9.7653e-015 -3.02153e-014
rhumerus -19.2413 8.08216 -69.5835
rradius 54.3947
rwrist 2.08104
rhand -26.9418 5.07373
rfingers 7.12502
rthumb -0.363875 -24.9057
lclavicle -9.7653e-015 -3.02153e-014
lhumerus -31.3006 -5.38599 70.1985
lradius 50.4283
lwrist 12.7106
lhand -17.5991 19.6406
lfingers 7.12502
lthumb 8.65724 49.4431
rfemur 0.755107 -1.68821 23.758
rtibia 23.4346
rfoot -13.8214 -1.01808
rtoes 16.6461
lfemur -18.2742 8.49374 -14.4801
ltibia 17.3919
lfoot -13.3231 11.4368
ltoes -11.9068
2295
root 15.5379 17.1677 -4.6911 1762.41 82.398 -759.409
lowerback -0.462108 1.64758 6.62819
upperback -1.12719 2.27908 2.59073
thorax -0.754707 1.12206 -1.04472
lowerneck -2.76149 -1.15221 -1.1673
upperneck 5.0804 -1.71183 5.11396
head 2.1438 -0.726832 1.78752
rclavicle -1.40019e-014 -3.10104e-014
rhumerus -19.2996 8.01542 -69.5946
rradius 54.337
rwrist 2.11942
rhand -26.9333 5.05847
rfingers 7.12502
rthumb -0.355656 -24.921
lclavicle -1.40019e-014 -3.10104e-014
lhumerus -31.0817 -5.3203 69.7643
lradius 50.564
lwrist 12.6652
lhand -17.5572 19.6516
lfingers 7.12502
lthumb 8.69768 49.4524
rfemur 1.12221 -1.50973 23.7647
rtibia 23.5182
rfoot -13.8161 -0.691105
rtoes 16.6282
lfemur -17.84 8.42006 -14.2484
ltibia 17.2072
lfoot -13.0369 11.8859
ltoes -11.4529
2296
root 15.6591 17.1512 -4.71068 1762.91 82.0783 -758.938
lowerback -0.578007 1.62907 6.5257
upperback -1.13002 2.24456 2.62286
thorax -0.699743 1.10737 -0.951505
lowerneck -2.79255 -1.10257 -1.0847
upperneck 5.38081 -1.66045 5.15118
head 2.24592 -0.692318 1.78902
rclavicle 2.35187e-014 3.89618e-014
rhumerus -19.3838 7.91105 -69.6173
rradius 54.284
rwrist 2.15352
rhand -26.9344 5.04745
rfingers 7.12502
rthumb -0.356685 -24.932
lclavicle 2.35187e-014 3.89618e-014
lhumerus -30.8656 -5.24402 69.3172
lradius 50.7066
lwrist 12.6345
lhand -17.5542 19.6603
lfingers 7.12502
lthumb 8.70052 49.461
rfemur 1.47386 -1.28074 23.7504
rtibia 23.608
rfoot -13.7861 -0.368639
rtoes 16.6624
lfemur -17.4501 8.52832 -14.0734
ltibia 17.2367
lfoot -12.6475 12.2103
ltoes -10.8797
2297
root 15.7801 17.137 -4.73147 1763.46 81.7817 -758.418
lowerback -0.689231 1.60505 6.40795
upperback -1.14144 2.20337 2.63864
thorax -0.656392 1.08871 -0.867075
lowerneck -2.81144 -1.04735 -1.01215
upperneck 5.647 -1.60032 5.19253
head 2.33485 -0.654047 1.79382
rclavicle -2.21148e-015 -3.4191e-014
rhumerus -19.502 7.76044 -69.6509
rradius 54.2317
rwrist 2.19318
rhand -26.9595 5.05946
rfingers 7.12502
rthumb -0.380992 -24.9199
lclavicle -2.21148e-015 -3.4191e-014
lhumerus -30.6458 -5.15568 68.8657
lradius 50.8348
lwrist 12.6177
lhand -17.5985 19.6562
lfingers 7.12502
lthumb 8.65777 49.4587
rfemur 1.81421 -1.00793 23.7107
rtibia 23.7009
rfoot -13.7256 -0.0665462
rtoes 16.7602
lfemur -17.0904 8.7452 -13.9503
ltibia 17.4012
lfoot -12.2627 12.4409
ltoes -10.0316
2298
root 15.9009 17.1263 -4.7537 1764.03 81.5176 -757.881
lowerback -0.783525 1.57285 6.27694
upperback -1.16051 2.15299 2.63816
thorax -0.630605 1.0647 -0.792851
lowerneck -2.81743 -0.987725 -0.954077
upperneck 5.8821 -1.533 5.24065
head 2.41151 -0.612857 1.80353
rclavicle -1.2275e-014 -1.19271e-015
rhumerus -19.6642 7.56654 -69.6939
rradius 54.1815
rwrist 2.23808
rhand -27.0074 5.08932
rfingers 7.12502
rthumb -0.427253 -24.89
lclavicle -1.2275e-014 -1.19271e-015
lhumerus -30.4229 -5.05233 68.4183
lradius 50.9354
lwrist 12.6193
lhand -17.701 19.6378
lfingers 7.12502
lthumb 8.55889 49.4443
rfemur 2.15004 -0.706601 23.6442
rtibia 23.7987
rfoot -13.6232 0.192046
rtoes 16.8482
lfemur -16.7461 8.98284 -13.8676
ltibia 17.6249
lfoot -11.8794 12.6331
ltoes -9.06338
2299
root 16.0215 17.1195 -4.77749 1764.53 81.2946 -757.392
lowerback -0.854392 1.53154 6.14046
upperback -1.18343 2.09253 2.62248
thorax -0.62189 1.03496 -0.73214
lowerneck -2.80847 -0.926873 -0.910952
upperneck 6.08964 -1.46265 5.29363
head 2.47668 -0.570919 1.81748
rclavicle 6.42323e-015 -5.1684e-015
rhumerus -19.8749 7.32876 -69.7401
rradius 54.1286
rwrist 2.28402
rhand -27.0755 5.12973
rfingers 7.12502
rthumb -0.492985 -24.8494
lclavicle 6.42323e-015 -5.1684e-015
lhumerus -30.1844 -4.94229 67.9888
lradius 50.9853
lwrist 12.6539
lhand -17.8864 19.5894
lfingers 7.12502
lthumb 8.37999 49.4032
rfemur 2.48857 -0.395157 23.5556
rtibia 23.9084
rfoot -13.4782 0.392959
rtoes 16.9296
lfemur -16.408 9.20548 -13.8161
ltibia 17.8502
lfoot -11.4676 12.7803
ltoes -8.08823
2300
root 16.1417 17.1167 -4.80288 1764.9 81.1151 -757.017
lowerback -0.903676 1.4792 6.00626
upperback -1.20463 2.01893 2.59576
thorax -0.623505 0.998257 -0.684801
lowerneck -2.80361 -0.865914 -0.884484
upperneck 6.28201 -1.39136 5.35174
head 2.53798 -0.528899 1.83613
rclavicle 4.17199e-014 2.66371e-014
rhumerus -20.1246 7.05591 -69.7826
rradius 54.065
rwrist 2.3339
rhand -27.1533 5.17277
rfingers 7.12502
rthumb -0.568168 -24.8062
lclavicle 4.17199e-014 2.66371e-014
lhumerus -29.9178 -4.81828 67.5822
lradius 50.9741
lwrist 12.7067
lhand -18.1304 19.5413
lfingers 7.12502
lthumb 8.14453 49.3644
rfemur 2.82412 -0.0974038 23.4534
rtibia 24.0409
rfoot -13.2867 0.529977
rtoes 16.9946
lfemur -16.0785 9.4043 -13.7869
ltibia 18.0516
lfoot -10.938 12.8572
ltoes -7.27308
2301
root 16.2616 17.1175 -4.82995 1765.1 80.9757 -756.801
lowerback -0.939533 1.41652 5.88346
upperback -1.22125 1.93233 2.56268
thorax -0.627803 0.954913 -0.650716
lowerneck -2.81283 -0.806087 -0.866218
upperneck 6.46972 -1.32106 5.40396
head 2.60051 -0.487633 1.85443
rclavicle 7.8023e-015 1.03368e-014
rhumerus -20.4128 6.76718 -69.8111
rradius 53.9953
rwrist 2.37409
rhand -27.2236 5.21244
rfingers 7.12502
rthumb -0.636084 -24.7664
lclavicle 7.8023e-015 1.03368e-014
lhumerus -29.6194 -4.68083 67.2074
lradius 50.9001
lwrist 12.7842
lhand -18.4247 19.4791
lfingers 7.12502
lthumb 7.8604 49.3129
rfemur 3.14699 0.176709 23.3478
rtibia 24.2099
rfoot -13.0538 0.595828
rtoes 17.0201
lfemur -15.7612 9.61312 -13.7774
ltibia 18.2316
lfoot -10.2583 12.819
ltoes -6.53356
